<mxfile host="app.diagrams.net" agent="Mozilla/5.0 (Windows NT 10.0; Win64; x64) AppleWebKit/537.36 (KHTML, like Gecko) Chrome/128.0.0.0 Safari/537.36" version="24.7.10">
  <diagram name="PÃ¡gina-1" id="zgHud1uB7vXZd1-8px69">
    <mxGraphModel grid="1" page="1" gridSize="10" guides="1" tooltips="1" connect="1" arrows="1" fold="1" pageScale="1" pageWidth="827" pageHeight="1169" math="0" shadow="0">
      <root>
        <mxCell id="0" />
        <mxCell id="1" parent="0" />
        <mxCell id="y0ZhYdej-PMV7Z0D0JRW-1" value="Usuario alumno" style="shape=umlActor;verticalLabelPosition=bottom;verticalAlign=top;html=1;" vertex="1" parent="1">
          <mxGeometry x="80" y="290" width="30" height="60" as="geometry" />
        </mxCell>
        <mxCell id="y0ZhYdej-PMV7Z0D0JRW-2" value="" style="rounded=0;whiteSpace=wrap;html=1;" vertex="1" parent="1">
          <mxGeometry x="160" y="80" width="650" height="480" as="geometry" />
        </mxCell>
        <mxCell id="y0ZhYdej-PMV7Z0D0JRW-3" value="Buscar persona interesada en un deporte" style="ellipse;whiteSpace=wrap;html=1;" vertex="1" parent="1">
          <mxGeometry x="250" y="292.5" width="120" height="55" as="geometry" />
        </mxCell>
        <mxCell id="y0ZhYdej-PMV7Z0D0JRW-4" value="" style="endArrow=block;endFill=1;html=1;edgeStyle=orthogonalEdgeStyle;align=left;verticalAlign=top;rounded=0;exitX=0.5;exitY=0.5;exitDx=0;exitDy=0;exitPerimeter=0;entryX=0;entryY=0.5;entryDx=0;entryDy=0;" edge="1" parent="1" source="y0ZhYdej-PMV7Z0D0JRW-1" target="y0ZhYdej-PMV7Z0D0JRW-3">
          <mxGeometry x="-1" relative="1" as="geometry">
            <mxPoint x="160" y="380" as="sourcePoint" />
            <mxPoint x="320" y="380" as="targetPoint" />
          </mxGeometry>
        </mxCell>
        <mxCell id="y0ZhYdej-PMV7Z0D0JRW-7" value="Filtrar por deporte" style="ellipse;whiteSpace=wrap;html=1;" vertex="1" parent="1">
          <mxGeometry x="460" y="180" width="120" height="55" as="geometry" />
        </mxCell>
        <mxCell id="y0ZhYdej-PMV7Z0D0JRW-9" value="Filtrar por disponibilidad" style="ellipse;whiteSpace=wrap;html=1;" vertex="1" parent="1">
          <mxGeometry x="460" y="400" width="120" height="55" as="geometry" />
        </mxCell>
        <mxCell id="y0ZhYdej-PMV7Z0D0JRW-10" value="Mostrar perfiles" style="ellipse;whiteSpace=wrap;html=1;" vertex="1" parent="1">
          <mxGeometry x="690" y="292.5" width="120" height="55" as="geometry" />
        </mxCell>
        <mxCell id="y0ZhYdej-PMV7Z0D0JRW-15" value="Extends" style="endArrow=block;endSize=16;endFill=0;html=1;rounded=0;entryX=0;entryY=0.5;entryDx=0;entryDy=0;exitX=1;exitY=1;exitDx=0;exitDy=0;" edge="1" parent="1" source="y0ZhYdej-PMV7Z0D0JRW-3" target="y0ZhYdej-PMV7Z0D0JRW-9">
          <mxGeometry width="160" relative="1" as="geometry">
            <mxPoint x="330" y="340" as="sourcePoint" />
            <mxPoint x="490" y="340" as="targetPoint" />
          </mxGeometry>
        </mxCell>
        <mxCell id="y0ZhYdej-PMV7Z0D0JRW-16" value="Extends" style="endArrow=block;endSize=16;endFill=0;html=1;rounded=0;entryX=0;entryY=0.5;entryDx=0;entryDy=0;exitX=1;exitY=0;exitDx=0;exitDy=0;" edge="1" parent="1" source="y0ZhYdej-PMV7Z0D0JRW-3" target="y0ZhYdej-PMV7Z0D0JRW-7">
          <mxGeometry width="160" relative="1" as="geometry">
            <mxPoint x="314" y="205" as="sourcePoint" />
            <mxPoint x="414" y="205" as="targetPoint" />
          </mxGeometry>
        </mxCell>
        <mxCell id="y0ZhYdej-PMV7Z0D0JRW-21" value="include" style="endArrow=open;endSize=12;dashed=1;html=1;rounded=0;exitX=0;exitY=0;exitDx=0;exitDy=0;entryX=1;entryY=0.5;entryDx=0;entryDy=0;" edge="1" parent="1" source="y0ZhYdej-PMV7Z0D0JRW-10" target="y0ZhYdej-PMV7Z0D0JRW-7">
          <mxGeometry width="160" relative="1" as="geometry">
            <mxPoint x="550" y="380" as="sourcePoint" />
            <mxPoint x="710" y="380" as="targetPoint" />
          </mxGeometry>
        </mxCell>
        <mxCell id="y0ZhYdej-PMV7Z0D0JRW-22" value="include" style="endArrow=open;endSize=12;dashed=1;html=1;rounded=0;exitX=0;exitY=1;exitDx=0;exitDy=0;entryX=1;entryY=0.5;entryDx=0;entryDy=0;" edge="1" parent="1" source="y0ZhYdej-PMV7Z0D0JRW-10" target="y0ZhYdej-PMV7Z0D0JRW-9">
          <mxGeometry width="160" relative="1" as="geometry">
            <mxPoint x="677" y="400" as="sourcePoint" />
            <mxPoint x="550" y="307" as="targetPoint" />
          </mxGeometry>
        </mxCell>
      </root>
    </mxGraphModel>
  </diagram>
</mxfile>
